<svg width="220" height="146" viewBox="0 0 220 146" fill="none" xmlns="http://www.w3.org/2000/svg">
<path d="M220 68.9713V61.6149C220 60.9203 219.863 60.2325 219.597 59.5908C219.331 58.9491 218.941 58.366 218.449 57.8749C217.957 57.3837 217.373 56.9941 216.731 56.7283C216.088 56.4625 215.4 56.3257 214.704 56.3257H200.061C198.656 56.3257 197.309 55.7684 196.316 54.7765C195.323 53.7846 194.765 52.4393 194.765 51.0365V43.6801C194.765 40.7589 201.185 38.3909 204.11 38.3909H204.7C206.105 38.3909 207.452 37.8336 208.445 36.8417C209.438 35.8498 209.996 34.5044 209.996 33.1016V25.7453C209.996 25.0507 209.859 24.3629 209.593 23.7212C209.327 23.0795 208.936 22.4964 208.445 22.0052C207.953 21.5141 207.369 21.1245 206.727 20.8587C206.084 20.5929 205.395 20.4561 204.7 20.4561H25.775C25.0795 20.4561 24.3909 20.5929 23.7484 20.8587C23.1059 21.1245 22.5221 21.5141 22.0303 22.0052C21.5386 22.4964 21.1485 23.0795 20.8823 23.7212C20.6162 24.3629 20.4792 25.0507 20.4792 25.7453V33.1016C20.4792 33.7962 20.6162 34.484 20.8823 35.1257C21.1485 35.7675 21.5386 36.3505 22.0303 36.8417C22.5221 37.3328 23.1059 37.7224 23.7484 37.9883C24.3909 38.2541 25.0795 38.3909 25.775 38.3909C27.1795 38.3909 28.5265 38.9481 29.5197 39.9401C30.5128 40.932 31.0708 42.2773 31.0708 43.6801V51.0365C31.0708 52.4392 30.5128 53.7846 29.5197 54.7765C28.5265 55.7684 27.1795 56.3257 25.775 56.3257H5.29577C4.60032 56.3257 3.91168 56.4625 3.26917 56.7283C2.62665 56.9941 2.04285 57.3837 1.5511 57.8749C1.05934 58.366 0.669252 58.9491 0.403115 59.5908C0.136978 60.2325 -5.31711e-07 60.9203 0 61.6149V68.9713C0 70.3741 0.557946 71.7194 1.5511 72.7113C2.54425 73.7032 3.89125 74.2605 5.29577 74.2605H13.3315C14.736 74.2605 16.083 74.8178 17.0762 75.8097C18.0693 76.8016 18.6273 78.1469 18.6273 79.5497V86.9061C18.6273 87.6007 18.4903 88.2885 18.2242 88.9302C17.958 89.5719 17.568 90.155 17.0762 90.6462C16.5844 91.1373 16.0006 91.5269 15.3581 91.7927C14.7156 92.0586 14.027 92.1954 13.3315 92.1954H13.3121C11.9075 92.1954 10.5605 92.7526 9.5674 93.7446C8.57425 94.7365 8.0163 96.0818 8.0163 97.4846V104.841C8.0163 105.536 8.15328 106.223 8.41942 106.865C8.68556 107.507 9.07564 108.09 9.5674 108.581C10.0592 109.072 10.643 109.462 11.2855 109.728C11.928 109.993 12.6166 110.13 13.3121 110.13H14.4747C15.8792 110.13 17.2262 110.687 18.2194 111.679C19.2125 112.671 19.7705 114.017 19.7705 115.419V122.776C19.7705 124.179 19.2125 125.524 18.2194 126.516C17.2262 127.508 15.8792 128.065 14.4747 128.065H7.54111C6.84566 128.065 6.15701 128.202 5.5145 128.468C4.87199 128.733 4.28819 129.123 3.79643 129.614C3.30467 130.105 2.91459 130.688 2.64845 131.33C2.38231 131.972 2.24533 132.66 2.24533 133.354V140.711C2.24533 142.113 2.80328 143.459 3.79643 144.451C4.78958 145.443 6.13658 146 7.54111 146H203.494C204.899 146 206.246 145.443 207.239 144.451C208.232 143.459 208.79 142.113 208.79 140.711V133.354C208.79 132.66 208.653 131.972 208.387 131.33C208.121 130.688 207.731 130.105 207.239 129.614C206.747 129.123 206.163 128.733 205.521 128.468C204.878 128.202 204.19 128.065 203.494 128.065H198.903C197.498 128.065 196.151 127.508 195.158 126.516C194.165 125.524 193.607 124.179 193.607 122.776V115.419C193.607 114.017 194.165 112.671 195.158 111.679C196.151 110.687 197.498 110.13 198.903 110.13H209.729C211.134 110.13 212.481 109.573 213.474 108.581C214.467 107.589 215.025 106.244 215.025 104.841V97.4846C215.025 96.0818 214.467 94.7365 213.474 93.7445C212.481 92.7526 211.134 92.1954 209.729 92.1954H206.445C205.04 92.1954 203.693 91.6381 202.7 90.6462C201.707 89.6543 201.149 88.3089 201.149 86.9061V79.5497C201.149 78.1469 201.707 76.8016 202.7 75.8097C203.693 74.8178 205.04 74.2605 206.445 74.2605H214.704C216.109 74.2605 217.456 73.7032 218.449 72.7113C219.442 71.7194 220 70.3741 220 68.9713Z" fill="white" fill-opacity="0.05"/>
<path d="M68.208 56.0824C68.2068 58.7646 67.1397 61.3367 65.2412 63.2338C63.3426 65.1308 60.7678 66.1977 58.0822 66.2001H20.245C18.3188 66.2003 16.4605 65.4892 15.0274 64.2037C13.5944 62.9182 12.6877 61.1489 12.4818 59.2361C12.2758 57.3233 12.7852 55.4019 13.9119 53.8415C15.0385 52.2811 16.703 51.1917 18.5852 50.7829C18.7358 48.5067 19.7466 46.3725 21.413 44.8124C23.0794 43.2523 25.2769 42.3828 27.561 42.3797C28.4859 42.3798 29.4049 42.5264 30.2838 42.8142C31.6171 40.2384 33.7083 38.1322 36.2761 36.779C38.8438 35.4257 41.765 34.8904 44.6465 35.2449C47.528 35.5995 50.2316 36.8269 52.3938 38.7621C54.5559 40.6973 56.0728 43.2474 56.7404 46.0694C58.1701 45.8765 59.6247 45.9913 61.0064 46.4061C62.388 46.821 63.6648 47.5263 64.7511 48.4747C65.8373 49.4231 66.7077 50.5927 67.304 51.9049C67.9002 53.217 68.2085 54.6414 68.208 56.0824Z" fill="#0F0F0F" fill-opacity="0.35"/>
<path d="M134.002 115.494L126.48 104.324C132.544 98.9429 136.366 91.4848 137.19 83.4246C138.013 75.3645 135.779 67.289 130.928 60.7952C126.077 54.3013 118.963 49.8618 110.992 48.3544C103.022 46.8471 94.7754 48.3817 87.8833 52.6548C80.9911 56.9279 75.9553 63.6283 73.7715 71.4313C71.5877 79.2342 72.4149 87.5715 76.0896 94.7946C79.7643 102.018 86.0189 107.601 93.6166 110.44C101.214 113.279 109.602 113.167 117.121 110.127L124.454 120.966C124.814 121.592 125.294 122.141 125.866 122.582C126.438 123.023 127.092 123.347 127.79 123.536C128.487 123.725 129.215 123.774 129.932 123.682C130.649 123.59 131.341 123.357 131.968 122.998C132.595 122.639 133.145 122.159 133.586 121.588C134.028 121.016 134.352 120.363 134.541 119.667C134.73 118.97 134.78 118.243 134.687 117.527C134.595 116.811 134.362 116.12 134.002 115.494Z" fill="white" fill-opacity="0.2"/>
<path d="M105.033 103.152C117.79 103.152 128.132 92.8233 128.132 80.0822C128.132 67.3411 117.79 57.0125 105.033 57.0125C92.2765 57.0125 81.9351 67.3411 81.9351 80.0822C81.9351 92.8233 92.2765 103.152 105.033 103.152Z" fill="#202020"/>
<path d="M105.034 57.0125C103.931 57.0136 102.83 57.093 101.738 57.2501C107.236 58.0412 112.265 60.785 115.902 64.9784C119.539 69.1719 121.541 74.5341 121.541 80.0822C121.541 85.6302 119.539 90.9925 115.902 95.1859C112.265 99.3794 107.236 102.123 101.738 102.914C104.878 103.366 108.078 103.168 111.138 102.33C114.197 101.493 117.051 100.035 119.522 98.048C121.993 96.0605 124.027 93.586 125.498 90.7788C126.969 87.9715 127.846 84.8917 128.073 81.7313C128.3 78.5709 127.872 75.3977 126.817 72.4095C125.762 69.4213 124.102 66.6823 121.94 64.3631C119.779 62.0439 117.162 60.1943 114.253 58.9297C111.345 57.665 108.206 57.0124 105.034 57.0125Z" fill="white" fill-opacity="0.1"/>
<path d="M87.8182 102.647C88.5187 102.647 89.0866 102.08 89.0866 101.38C89.0866 100.68 88.5187 100.113 87.8182 100.113C87.1177 100.113 86.5498 100.68 86.5498 101.38C86.5498 102.08 87.1177 102.647 87.8182 102.647Z" fill="white" fill-opacity="0.2"/>
<path d="M129.4 67.7675C130.101 67.7675 130.669 67.2004 130.669 66.5008C130.669 65.8012 130.101 65.2341 129.4 65.2341C128.7 65.2341 128.132 65.8012 128.132 66.5008C128.132 67.2004 128.7 67.7675 129.4 67.7675Z" fill="white" fill-opacity="0.2"/>
<path d="M128.63 93.6414C127.86 95.273 126.916 96.817 125.815 98.2465C124.676 99.6675 123.397 100.971 121.998 102.139C120.57 103.287 119.034 104.294 117.412 105.147C114.129 106.83 110.525 107.795 106.84 107.977C105.921 107.986 105.004 108.019 104.089 107.964C103.175 107.913 102.264 107.811 101.361 107.66C97.7653 107.083 94.3483 105.694 91.3706 103.599C94.5762 105.094 98.0093 106.043 101.528 106.409C104.994 106.746 108.493 106.46 111.858 105.563C113.532 105.108 115.163 104.51 116.735 103.777C118.301 103.018 119.805 102.137 121.232 101.141C122.648 100.108 123.981 98.9657 125.22 97.726C126.45 96.4454 127.59 95.0805 128.63 93.6414Z" fill="white" fill-opacity="0.2"/>
<path d="M78.3511 85.4757C77.0809 80.8058 77.1825 75.8695 78.6437 71.2557C79.3673 68.9316 80.4079 66.7181 81.7363 64.6776C82.4014 63.6566 83.137 62.6831 83.9377 61.7643C84.7319 60.839 85.5872 59.9679 86.4979 59.1567C87.4154 58.3529 88.3822 57.6071 89.3926 56.9234C89.9106 56.6022 90.4102 56.2507 90.9467 55.9598L91.7413 55.5077L92.5589 55.0983C93.1003 54.8185 93.6707 54.5988 94.2264 54.3512C94.7987 54.1424 95.3585 53.9015 95.9424 53.7274C97.0959 53.3423 98.2758 53.0414 99.4728 52.827C101.858 52.4063 104.29 52.3119 106.701 52.5464C109.087 52.7893 111.425 53.3761 113.642 54.2884C111.357 53.7033 109.011 53.3848 106.653 53.3392C104.324 53.3043 101.999 53.5474 99.7278 54.0635C97.4768 54.593 95.3005 55.4001 93.249 56.4661C92.2258 56.9953 91.235 57.5846 90.2818 58.231C89.3359 58.8871 88.4309 59.6001 87.5718 60.3661C84.0958 63.4319 81.4375 67.3128 79.836 71.6594C78.2324 76.0778 77.723 80.8181 78.3511 85.4757Z" fill="white" fill-opacity="0.2"/>
<path d="M60.7119 103.941V113.309C60.7119 121.445 61.2057 122.061 69.9683 122.923V126.375H41.0883V122.923C50.3447 122.061 50.9618 121.321 50.9618 113.185V103.941H18.3794V100.243C30.1042 83.6017 42.8163 65.6051 55.1582 48.4709H60.7119V98.0237H72.8071V103.941L60.7119 103.941ZM50.9618 61.4141C43.1866 72.7544 34.5471 85.3273 26.0314 98.0236H50.9618V61.4141Z" fill="white" fill-opacity="0.2"/>
<path d="M182.648 103.941V113.309C182.648 121.445 183.142 122.061 191.905 122.923V126.375H163.025V122.923C172.281 122.061 172.898 121.321 172.898 113.185V103.941H140.316V100.243C152.041 83.6017 164.753 65.6051 177.095 48.4709H182.648V98.0237H194.744V103.941L182.648 103.941ZM172.898 61.4141C165.123 72.7544 156.483 85.3273 147.968 98.0236H172.898V61.4141Z" fill="white" fill-opacity="0.2"/>
<path d="M202.089 27.5864C202.087 31.1193 200.682 34.5072 198.181 37.0059C195.68 39.5046 192.289 40.9099 188.752 40.913H138.914C136.377 40.9132 133.929 39.9766 132.042 38.2834C130.154 36.5902 128.96 34.2598 128.689 31.7403C128.418 29.2208 129.088 26.6901 130.572 24.6348C132.056 22.5795 134.249 21.1447 136.728 20.6062C136.926 17.608 138.258 14.7971 140.453 12.7422C142.647 10.6873 145.542 9.54191 148.55 9.53787C149.769 9.53795 150.979 9.73111 152.137 10.1101C153.893 6.71739 156.647 3.94324 160.03 2.16084C163.412 0.378442 167.259 -0.326689 171.055 0.1403C174.85 0.60729 178.411 2.224 181.259 4.77294C184.107 7.32188 186.105 10.6808 186.984 14.3978C188.867 14.1436 190.783 14.2948 192.603 14.8413C194.423 15.3877 196.105 16.3167 197.535 17.5659C198.966 18.8151 200.113 20.3556 200.898 22.084C201.683 23.8123 202.089 25.6884 202.089 27.5864Z" fill="#0F0F0F" fill-opacity="0.35"/>
<path d="M202.019 131.788C202.017 134.471 200.95 137.043 199.052 138.94C197.153 140.837 194.578 141.904 191.893 141.906H154.056C152.129 141.906 150.271 141.195 148.838 139.91C147.405 138.624 146.498 136.855 146.292 134.942C146.086 133.029 146.596 131.108 147.722 129.548C148.849 127.987 150.514 126.898 152.396 126.489C152.546 124.213 153.557 122.079 155.223 120.518C156.89 118.958 159.087 118.089 161.371 118.086C162.296 118.086 163.215 118.232 164.094 118.52C165.428 115.944 167.519 113.838 170.087 112.485C172.654 111.132 175.575 110.596 178.457 110.951C181.338 111.306 184.042 112.533 186.204 114.468C188.366 116.403 189.883 118.953 190.551 121.775C191.981 121.583 193.435 121.697 194.817 122.112C196.199 122.527 197.475 123.232 198.562 124.181C199.648 125.129 200.518 126.299 201.114 127.611C201.711 128.923 202.019 130.347 202.019 131.788Z" fill="#0F0F0F" fill-opacity="0.35"/>
<path d="M26.6836 17.7305H39.7628" stroke="white" stroke-opacity="0.1" stroke-width="1.2087" stroke-miterlimit="10" stroke-linecap="round"/>
<path d="M26.6836 21.4956H39.7628" stroke="white" stroke-opacity="0.1" stroke-width="1.2087" stroke-miterlimit="10" stroke-linecap="round"/>
<path d="M26.6836 25.2605H39.7628" stroke="white" stroke-opacity="0.1" stroke-width="1.2087" stroke-miterlimit="10" stroke-linecap="round"/>
<path d="M89.1865 129.314H102.266" stroke="white" stroke-opacity="0.1" stroke-width="1.2087" stroke-miterlimit="10" stroke-linecap="round"/>
<path d="M89.1865 133.08H102.266" stroke="white" stroke-opacity="0.1" stroke-width="1.2087" stroke-miterlimit="10" stroke-linecap="round"/>
<path d="M89.1865 136.845H102.266" stroke="white" stroke-opacity="0.1" stroke-width="1.2087" stroke-miterlimit="10" stroke-linecap="round"/>
<path d="M195.479 79.4631H208.558" stroke="white" stroke-opacity="0.1" stroke-width="1.2087" stroke-miterlimit="10" stroke-linecap="round"/>
<path d="M195.479 83.2283H208.558" stroke="white" stroke-opacity="0.1" stroke-width="1.2087" stroke-miterlimit="10" stroke-linecap="round"/>
<path d="M195.479 86.9934H208.558" stroke="white" stroke-opacity="0.1" stroke-width="1.2087" stroke-miterlimit="10" stroke-linecap="round"/>
<path d="M11.1716 137.726C14.8452 137.726 17.8232 134.751 17.8232 131.082C17.8232 127.413 14.8452 124.439 11.1716 124.439C7.49803 124.439 4.52002 127.413 4.52002 131.082C4.52002 134.751 7.49803 137.726 11.1716 137.726Z" fill="white" fill-opacity="0.1"/>
<path d="M19.5428 123.882C21.4563 123.882 23.0075 122.333 23.0075 120.422C23.0075 118.511 21.4563 116.962 19.5428 116.962C17.6293 116.962 16.0781 118.511 16.0781 120.422C16.0781 122.333 17.6293 123.882 19.5428 123.882Z" fill="white" fill-opacity="0.1"/>
<path d="M36.7633 138.893C38.4195 138.893 39.762 137.552 39.762 135.898C39.762 134.244 38.4195 132.903 36.7633 132.903C35.1072 132.903 33.7646 134.244 33.7646 135.898C33.7646 137.552 35.1072 138.893 36.7633 138.893Z" fill="white" fill-opacity="0.1"/>
<path d="M29.7988 129.016C30.9026 129.016 31.7973 128.122 31.7973 127.02C31.7973 125.918 30.9026 125.024 29.7988 125.024C28.6951 125.024 27.8003 125.918 27.8003 127.02C27.8003 128.122 28.6951 129.016 29.7988 129.016Z" fill="white" fill-opacity="0.1"/>
<path d="M25.0946 141.905C27.7406 141.905 29.8856 139.763 29.8856 137.12C29.8856 134.477 27.7406 132.335 25.0946 132.335C22.4487 132.335 20.3037 134.477 20.3037 137.12C20.3037 139.763 22.4487 141.905 25.0946 141.905Z" fill="white" fill-opacity="0.1"/>
</svg>
