<svg width="300" height="160" viewBox="0 0 300 160" fill="none" xmlns="http://www.w3.org/2000/svg">
<rect width="300" height="160" rx="10" fill="#48537A"/>
<rect x="135" y="34" width="30" height="30" rx="5" fill="white" fill-opacity="0.1"/>
<rect x="90" y="24" width="120" height="4" rx="2" fill="white" fill-opacity="0.1"/>
<rect x="110" y="16" width="80" height="4" rx="2" fill="white" fill-opacity="0.1"/>
<rect x="16.5" y="75.5" width="267" height="59" rx="4.5" stroke="white" stroke-opacity="0.1"/>
<rect x="16" y="144" width="268" height="4" rx="2" fill="white" fill-opacity="0.1"/>
<path d="M120.68 151L124.856 140.984C125.048 140.515 125.299 140.179 125.608 139.976C125.928 139.773 126.413 139.672 127.064 139.672C127.619 139.672 128.067 139.763 128.408 139.944C128.76 140.125 129.043 140.472 129.256 140.984L133.448 151H130.424L129.416 148.44H124.696L123.688 151H120.68ZM126.824 142.712L125.4 146.264H128.712L127.288 142.712C127.203 142.477 127.128 142.36 127.064 142.36C126.989 142.36 126.909 142.477 126.824 142.712ZM142.645 151H135.061C134.677 151 134.352 150.856 134.085 150.568C133.818 150.28 133.685 149.859 133.685 149.304C133.685 148.429 133.962 147.821 134.517 147.48L139.461 144.456C139.888 144.189 140.101 143.757 140.101 143.16C140.101 142.733 140.016 142.44 139.845 142.28C139.674 142.12 139.365 142.04 138.917 142.04H134.389V139.8H140.357C141.306 139.8 141.978 140.045 142.373 140.536C142.778 141.027 142.981 141.784 142.981 142.808C142.981 143.725 142.864 144.413 142.629 144.872C142.405 145.331 141.994 145.736 141.397 146.088L137.445 148.488C137.338 148.541 137.285 148.6 137.285 148.664C137.285 148.728 137.322 148.76 137.397 148.76H142.645V151ZM147.307 146.392V148.024C147.307 148.344 147.36 148.557 147.467 148.664C147.574 148.771 147.787 148.824 148.107 148.824H150.779C151.216 148.824 151.531 148.733 151.723 148.552C151.915 148.36 152.011 148.045 152.011 147.608C152.011 147.171 151.915 146.861 151.723 146.68C151.542 146.488 151.248 146.392 150.843 146.392H147.307ZM147.307 142.696V144.312H150.763C151.158 144.312 151.44 144.227 151.611 144.056C151.782 143.875 151.867 143.565 151.867 143.128C151.867 142.723 151.776 142.429 151.595 142.248C151.424 142.067 151.142 141.976 150.747 141.976H148.027C147.75 141.976 147.558 142.029 147.451 142.136C147.355 142.232 147.307 142.419 147.307 142.696ZM153.115 145.32C153.798 145.416 154.272 145.677 154.539 146.104C154.816 146.531 154.955 147.128 154.955 147.896C154.955 148.931 154.752 149.709 154.347 150.232C153.942 150.744 153.206 151 152.139 151H146.123C144.992 151 144.427 150.429 144.427 149.288V141.528C144.427 140.376 144.992 139.8 146.123 139.8H151.979C152.939 139.8 153.638 140.051 154.075 140.552C154.523 141.053 154.747 141.837 154.747 142.904C154.747 144.291 154.203 145.075 153.115 145.256V145.32ZM165.754 151H160.97C159.178 151 157.924 150.536 157.21 149.608C156.506 148.68 156.154 147.277 156.154 145.4C156.154 143.523 156.506 142.12 157.21 141.192C157.924 140.264 159.178 139.8 160.97 139.8H165.594V142.04H162.394C161.103 142.04 160.228 142.264 159.77 142.712C159.322 143.16 159.098 144.056 159.098 145.4C159.098 146.744 159.322 147.64 159.77 148.088C160.228 148.536 161.103 148.76 162.394 148.76H165.754V151ZM173.341 151H168.701C167.57 151 167.005 150.429 167.005 149.288V141.528C167.005 140.376 167.57 139.8 168.701 139.8H173.197C174.104 139.8 174.866 139.933 175.485 140.2C176.104 140.467 176.573 140.861 176.893 141.384C177.224 141.907 177.453 142.488 177.581 143.128C177.709 143.757 177.773 144.515 177.773 145.4C177.773 146.275 177.709 147.032 177.581 147.672C177.453 148.312 177.229 148.893 176.909 149.416C176.6 149.939 176.146 150.333 175.549 150.6C174.952 150.867 174.216 151 173.341 151ZM169.885 142.84V147.96C169.885 148.259 169.938 148.467 170.045 148.584C170.162 148.701 170.376 148.76 170.685 148.76H171.341C172.653 148.76 173.56 148.531 174.061 148.072C174.573 147.613 174.829 146.723 174.829 145.4C174.829 144.077 174.573 143.187 174.061 142.728C173.56 142.269 172.653 142.04 171.341 142.04H170.685C170.376 142.04 170.162 142.099 170.045 142.216C169.938 142.333 169.885 142.541 169.885 142.84Z" fill="white"/>
</svg>
