<svg width="19" height="18" viewBox="0 0 19 18" fill="none" xmlns="http://www.w3.org/2000/svg">
<path d="M8.72441 0.864741C9.01135 0.174855 9.98865 0.174854 10.2756 0.86474L12.0803 5.20367C12.2012 5.49451 12.4747 5.69322 12.7887 5.7184L17.4729 6.09393C18.2177 6.15364 18.5197 7.08311 17.9523 7.56919L14.3834 10.6263C14.1442 10.8312 14.0397 11.1528 14.1128 11.4592L15.2031 16.0302C15.3765 16.757 14.5859 17.3314 13.9482 16.942L9.93785 14.4924C9.66904 14.3282 9.33096 14.3282 9.06215 14.4924L5.05179 16.942C4.41414 17.3314 3.62349 16.757 3.79686 16.0302L4.88721 11.4592C4.9603 11.1528 4.85583 10.8312 4.6166 10.6263L1.04771 7.56919C0.48026 7.08311 0.782261 6.15364 1.52705 6.09393L6.21129 5.7184C6.52527 5.69322 6.79878 5.49451 6.91975 5.20367L8.72441 0.864741Z" fill="#FBF08D"/>
</svg>
